<svg width="24" height="24" viewBox="0 0 24 24" fill="none" xmlns="http://www.w3.org/2000/svg">
<g clip-path="url(#clip0_47067_10172)">
<path d="M11.0788 11.8541C11.0332 11.8077 10.9971 11.7525 10.9724 11.6918C10.9477 11.631 10.935 11.5659 10.935 11.5001C10.935 11.4344 10.9477 11.3692 10.9724 11.3085C10.9971 11.2477 11.0332 11.1926 11.0788 11.1461L15.5695 6.56113C15.8451 6.27986 15.9999 5.89834 16 5.50048C16.0001 5.10262 15.8454 4.72102 15.57 4.43963C15.2946 4.15823 14.921 4.00009 14.5314 4C14.1418 3.99991 13.7681 4.15786 13.4926 4.43913L9.00192 9.02513C8.36031 9.68216 8 10.5722 8 11.5001C8 12.428 8.36031 13.3181 9.00192 13.9751L13.4926 18.5611C13.7681 18.8424 14.1418 19.0003 14.5314 19.0003C14.921 19.0002 15.2946 18.842 15.57 18.5606C15.8454 18.2792 16.0001 17.8976 16 17.4998C15.9999 17.1019 15.8451 16.7204 15.5695 16.4391L11.0788 11.8541Z" fill="white"/>
</g>
<defs>
<clipPath id="clip0_47067_10172">
<rect width="8" height="15.0003" fill="white" transform="translate(8 4)"/>
</clipPath>
</defs>
</svg>
