<svg width="24" height="24" viewBox="0 0 24 24" fill="none" xmlns="http://www.w3.org/2000/svg">
<g clip-path="url(#clip0_47067_10176)">
<path d="M14.9981 9.02513L10.5074 4.43913C10.2319 4.15786 9.85819 3.99991 9.4686 4C9.07901 4.00009 8.70542 4.15823 8.43 4.43963C8.15458 4.72102 7.99991 5.10262 8 5.50048C8.00009 5.89834 8.15494 6.27986 8.43049 6.56113L12.9212 11.1461C12.9668 11.1926 13.0029 11.2477 13.0276 11.3085C13.0523 11.3692 13.065 11.4344 13.065 11.5001C13.065 11.5659 13.0523 11.631 13.0276 11.6918C13.0029 11.7525 12.9668 11.8077 12.9212 11.8541L8.43049 16.4391C8.15494 16.7204 8.00009 17.1019 8 17.4998C7.99991 17.8976 8.15458 18.2792 8.43 18.5606C8.70542 18.842 9.07901 19.0002 9.4686 19.0003C9.85819 19.0003 10.2319 18.8424 10.5074 18.5611L14.9981 13.9751C15.6397 13.3181 16 12.428 16 11.5001C16 10.5722 15.6397 9.68216 14.9981 9.02513Z" fill="white"/>
</g>
<defs>
<clipPath id="clip0_47067_10176">
<rect width="8" height="15.0003" fill="white" transform="translate(8 4)"/>
</clipPath>
</defs>
</svg>
