<svg width="24" height="24" viewBox="0 0 24 24" fill="none" xmlns="http://www.w3.org/2000/svg">
<g clip-path="url(#clip0_47067_8042)">
<path d="M16.4038 7.17245C17.2338 6.26629 17.7433 5.11394 17.8542 3.89169C17.8864 3.63965 17.8604 3.38361 17.778 3.14317C17.6957 2.90272 17.5593 2.68425 17.3793 2.50448C17.1992 2.3247 16.9803 2.18839 16.7393 2.10597C16.4983 2.02355 16.2416 1.99722 15.9888 2.02898C15.2285 2.08852 14.4902 2.3117 13.8248 2.68315C13.1594 3.05461 12.5826 3.5655 12.1342 4.18063C11.8504 3.47232 11.449 2.81672 10.9468 2.24131C10.791 2.08729 10.5807 2.00061 10.3613 2C10.1419 1.9994 9.93103 2.08492 9.77437 2.23809C9.6177 2.39125 9.52778 2.59974 9.52404 2.81849C9.5203 3.03724 9.60304 3.24867 9.75439 3.40707C10.5822 4.43495 11.0666 5.69544 11.1397 7.01174H9.10055C7.16402 7.07075 5.32982 7.89249 3.99953 9.29706C2.66924 10.7016 1.95125 12.5746 2.00273 14.5059C1.86829 19.1689 6.71569 23.4763 10.9794 21.4879C11.305 21.2814 11.6835 21.1731 12.0694 21.1759C12.4552 21.1787 12.8321 21.2925 13.1547 21.5037C13.6998 21.818 14.3162 21.9888 14.9458 22C23.5166 21.7635 24.6039 9.16172 16.4038 7.17245ZM13.8795 4.65359C14.5272 4.08878 15.3405 3.74766 16.1984 3.68102C16.1299 4.53465 15.7883 5.34378 15.2239 5.98921C14.5756 6.55367 13.7621 6.89473 12.9041 6.96178C12.972 6.10784 13.314 5.29843 13.8795 4.65359ZM14.9458 20.3346C14.5778 20.3205 14.2198 20.2112 13.907 20.0174C13.3338 19.6873 12.6851 19.5098 12.0232 19.502C11.3965 19.5165 10.7833 19.6862 10.2387 19.9957C7.01713 21.3846 3.58931 17.954 3.67281 14.5059C3.62131 13.0162 4.16337 11.5668 5.18047 10.4746C6.19757 9.38235 7.60698 8.73609 9.10055 8.6771H14.9458C22.1271 8.94439 22.1271 20.0698 14.9458 20.3346Z" fill="white"/>
</g>
<defs>
<clipPath id="clip0_47067_8042">
<rect width="20" height="20" fill="white" transform="translate(2 2)"/>
</clipPath>
</defs>
</svg>
