<svg width="24" height="24" viewBox="0 0 24 24" fill="none" xmlns="http://www.w3.org/2000/svg">
<g clip-path="url(#clip0_47067_8086)">
<path d="M19 11.0035H9L12.29 7.71117C12.3837 7.61814 12.4581 7.50746 12.5089 7.38551C12.5597 7.26357 12.5858 7.13277 12.5858 7.00066C12.5858 6.86855 12.5597 6.73775 12.5089 6.61581C12.4581 6.49386 12.3837 6.38318 12.29 6.29015C12.1026 6.10376 11.8492 5.99915 11.585 5.99915C11.3208 5.99915 11.0674 6.10376 10.88 6.29015L6.59 10.5932C6.21441 10.9669 6.00223 11.4743 6 12.0043C6.00487 12.5307 6.21684 13.0341 6.59 13.4053L10.88 17.7084C10.9732 17.801 11.0838 17.8744 11.2054 17.9243C11.3269 17.9742 11.4571 17.9996 11.5885 17.9991C11.7199 17.9987 11.8499 17.9723 11.9712 17.9216C12.0924 17.8708 12.2024 17.7967 12.295 17.7034C12.3876 17.6101 12.4609 17.4994 12.5107 17.3778C12.5606 17.2561 12.586 17.1258 12.5856 16.9943C12.5851 16.8628 12.5588 16.7327 12.508 16.6114C12.4573 16.4901 12.3832 16.38 12.29 16.2873L9 13.005H19C19.2652 13.005 19.5196 12.8996 19.7071 12.7119C19.8946 12.5242 20 12.2697 20 12.0043C20 11.7389 19.8946 11.4843 19.7071 11.2966C19.5196 11.109 19.2652 11.0035 19 11.0035Z" fill="white"/>
</g>
<defs>
<clipPath id="clip0_47067_8086">
<rect width="14" height="12" fill="white" transform="translate(6 5.99915)"/>
</clipPath>
</defs>
</svg>
