<svg width="24" height="24" viewBox="0 0 24 24" fill="none" xmlns="http://www.w3.org/2000/svg">
<g clip-path="url(#clip0_47067_10422)">
<path d="M6.98676 9H18.0132C18.2084 9.00004 18.3992 9.05418 18.5615 9.15558C18.7237 9.25698 18.8502 9.40108 18.9249 9.56967C18.9996 9.73826 19.0191 9.92377 18.981 10.1027C18.943 10.2817 18.849 10.4461 18.711 10.5752L13.1978 15.7298C13.0127 15.9028 12.7617 16 12.5 16C12.2383 16 11.9873 15.9028 11.8022 15.7298L6.28897 10.5752C6.15098 10.4461 6.05702 10.2817 6.01895 10.1027C5.98089 9.92377 6.00043 9.73826 6.07512 9.56967C6.1498 9.40108 6.27627 9.25698 6.43854 9.15558C6.60081 9.05418 6.79159 9.00004 6.98676 9Z" fill="white"/>
</g>
<defs>
<clipPath id="clip0_47067_10422">
<rect width="13" height="7" fill="white" transform="translate(6 9)"/>
</clipPath>
</defs>
</svg>
