<svg width="20" height="20" viewBox="0 0 20 20" fill="none" xmlns="http://www.w3.org/2000/svg">
<g clip-path="url(#clip0_15823_8817)">
<path d="M11.3748 10.0002L17.4931 3.88262C17.8729 3.50283 17.8729 2.88707 17.4931 2.50732C17.1133 2.12753 16.4976 2.12753 16.1178 2.50732L10.0002 8.62556L3.88256 2.50732C3.50277 2.12753 2.88701 2.12753 2.50725 2.50732C2.1275 2.8871 2.12746 3.50286 2.50725 3.88262L8.6255 10.0002L2.50725 16.1179C2.12746 16.4977 2.12746 17.1134 2.50725 17.4932C2.88704 17.8729 3.5028 17.873 3.88256 17.4932L10.0002 11.3749L16.1178 17.4932C16.4976 17.873 17.1133 17.873 17.4931 17.4932C17.8729 17.1134 17.8729 16.4976 17.4931 16.1179L11.3748 10.0002Z" fill="#A7A8AB"/>
</g>
<defs>
<clipPath id="clip0_15823_8817">
<rect width="15.5556" height="15.5556" fill="white" transform="translate(2.22217 2.22223)"/>
</clipPath>
</defs>
</svg>
