<svg width="24" height="24" viewBox="0 0 24 24" fill="none" xmlns="http://www.w3.org/2000/svg">
<g clip-path="url(#clip0_47067_8247)">
<path fill-rule="evenodd" clip-rule="evenodd" d="M17 3.66667H17.8333C18.938 3.66799 19.997 4.1074 20.7782 4.88852C21.5593 5.66963 21.9987 6.72867 22 7.83333V17.8333C21.9987 18.938 21.5593 19.997 20.7782 20.7782C19.997 21.5593 18.938 21.9987 17.8333 22H6.16667C5.062 21.9987 4.00296 21.5593 3.22185 20.7782C2.44073 19.997 2.00132 18.938 2 17.8333V7.83333C2.00132 6.72867 2.44073 5.66963 3.22185 4.88852C4.00296 4.1074 5.062 3.66799 6.16667 3.66667H7V2.83333C7 2.61232 7.0878 2.40036 7.24408 2.24408C7.40036 2.0878 7.61232 2 7.83333 2C8.05435 2 8.26631 2.0878 8.42259 2.24408C8.57887 2.40036 8.66667 2.61232 8.66667 2.83333V3.66667H15.3333V2.83333C15.3333 2.61232 15.4211 2.40036 15.5774 2.24408C15.7337 2.0878 15.9457 2 16.1667 2C16.3877 2 16.5996 2.0878 16.7559 2.24408C16.9122 2.40036 17 2.61232 17 2.83333V3.66667ZM4.3989 6.06557C3.93006 6.53441 3.66667 7.17029 3.66667 7.83333V8.66667H20.3333V7.83333C20.3333 7.17029 20.0699 6.53441 19.6011 6.06557C19.1323 5.59673 18.4964 5.33333 17.8333 5.33333H6.16667C5.50363 5.33333 4.86774 5.59673 4.3989 6.06557ZM4.3989 19.6011C4.86774 20.0699 5.50363 20.3333 6.16667 20.3333H17.8333C18.4964 20.3333 19.1323 20.0699 19.6011 19.6011C20.0699 19.1323 20.3333 18.4964 20.3333 17.8333V10.3333H3.66667V17.8333C3.66667 18.4964 3.93006 19.1323 4.3989 19.6011ZM13.25 14.5C13.25 15.1904 12.6904 15.75 12 15.75C11.3096 15.75 10.75 15.1904 10.75 14.5C10.75 13.8096 11.3096 13.25 12 13.25C12.6904 13.25 13.25 13.8096 13.25 14.5ZM7.8335 15.75C8.52385 15.75 9.0835 15.1904 9.0835 14.5C9.0835 13.8096 8.52385 13.25 7.8335 13.25C7.14314 13.25 6.5835 13.8096 6.5835 14.5C6.5835 15.1904 7.14314 15.75 7.8335 15.75ZM17.4165 14.5C17.4165 15.1904 16.8569 15.75 16.1665 15.75C15.4761 15.75 14.9165 15.1904 14.9165 14.5C14.9165 13.8096 15.4761 13.25 16.1665 13.25C16.8569 13.25 17.4165 13.8096 17.4165 14.5Z" fill="white"/>
</g>
<defs>
<clipPath id="clip0_47067_8247">
<rect width="20" height="20" fill="white" transform="translate(2 2)"/>
</clipPath>
</defs>
</svg>
