<svg width="24" height="24" viewBox="0 0 24 24" fill="none" xmlns="http://www.w3.org/2000/svg">
<g clip-path="url(#clip0_47067_10121)">
<path d="M12 9.5C12 9.27899 12.0862 9.06702 12.2396 8.91074C12.3931 8.75446 12.6012 8.66667 12.8182 8.66667C13.0352 8.66667 13.2433 8.75446 13.3967 8.91074C13.5502 9.06702 13.6364 9.27899 13.6364 9.5C13.6364 9.72101 13.5502 9.93297 13.3967 10.0893C13.2433 10.2455 13.0352 10.3333 12.8182 10.3333C12.6012 10.3333 12.3931 10.2455 12.2396 10.0893C12.0862 9.93297 12 9.72101 12 9.5ZM21 6.16667V17.8333C20.9987 18.938 20.5673 19.997 19.8004 20.7782C19.0335 21.5593 17.9937 21.9987 16.9091 22H8.72727C7.93219 21.9989 7.15464 21.7619 6.48972 21.3179C5.82479 20.8739 5.3013 20.2422 4.98327 19.5H3.81818C3.60119 19.5 3.39308 19.4122 3.23964 19.2559C3.0862 19.0996 3 18.8877 3 18.6667C3 18.4457 3.0862 18.2337 3.23964 18.0774C3.39308 17.9211 3.60119 17.8333 3.81818 17.8333H4.63636V16.1667H3.81818C3.60119 16.1667 3.39308 16.0789 3.23964 15.9226C3.0862 15.7663 3 15.5543 3 15.3333C3 15.1123 3.0862 14.9004 3.23964 14.7441C3.39308 14.5878 3.60119 14.5 3.81818 14.5H4.63636V12.8333H3.81818C3.60119 12.8333 3.39308 12.7455 3.23964 12.5893C3.0862 12.433 3 12.221 3 12C3 11.779 3.0862 11.567 3.23964 11.4107C3.39308 11.2545 3.60119 11.1667 3.81818 11.1667H4.63636V9.5H3.81818C3.60119 9.5 3.39308 9.4122 3.23964 9.25592C3.0862 9.09964 3 8.88768 3 8.66667C3 8.44565 3.0862 8.23369 3.23964 8.07741C3.39308 7.92113 3.60119 7.83333 3.81818 7.83333H4.63636V6.16667H3.81818C3.60119 6.16667 3.39308 6.07887 3.23964 5.92259C3.0862 5.76631 3 5.55435 3 5.33333C3 5.11232 3.0862 4.90036 3.23964 4.74408C3.39308 4.5878 3.60119 4.5 3.81818 4.5H4.98327C5.3013 3.7578 5.82479 3.12608 6.48972 2.68208C7.15464 2.23809 7.93219 2.00107 8.72727 2L16.9091 2C17.9937 2.00132 19.0335 2.44073 19.8004 3.22185C20.5673 4.00296 20.9987 5.062 21 6.16667ZM10.3636 9.5C10.3636 10.163 10.6222 10.7989 11.0826 11.2678C11.5429 11.7366 12.1672 12 12.8182 12C13.4692 12 14.0935 11.7366 14.5538 11.2678C15.0141 10.7989 15.2727 10.163 15.2727 9.5C15.2727 8.83696 15.0141 8.20107 14.5538 7.73223C14.0935 7.26339 13.4692 7 12.8182 7C12.1672 7 11.5429 7.26339 11.0826 7.73223C10.6222 8.20107 10.3636 8.83696 10.3636 9.5ZM16.9091 17C16.7365 11.4933 8.89827 11.495 8.72727 17C8.72727 17.221 8.81347 17.433 8.96691 17.5893C9.12035 17.7455 9.32846 17.8333 9.54545 17.8333C9.76245 17.8333 9.97056 17.7455 10.124 17.5893C10.2774 17.433 10.3636 17.221 10.3636 17C10.3636 16.337 10.6222 15.7011 11.0826 15.2322C11.5429 14.7634 12.1672 14.5 12.8182 14.5C13.4692 14.5 14.0935 14.7634 14.5538 15.2322C15.0141 15.7011 15.2727 16.337 15.2727 17C15.2727 17.221 15.3589 17.433 15.5124 17.5893C15.6658 17.7455 15.8739 17.8333 16.0909 17.8333C16.3079 17.8333 16.516 17.7455 16.6695 17.5893C16.8229 17.433 16.9091 17.221 16.9091 17Z" fill="#7D7E81"/>
</g>
<defs>
<clipPath id="clip0_47067_10121">
<rect width="18" height="20" fill="white" transform="translate(3 2)"/>
</clipPath>
</defs>
</svg>
