<svg width="24" height="24" viewBox="0 0 24 24" fill="none" xmlns="http://www.w3.org/2000/svg">
<g clip-path="url(#clip0_47067_10574)">
<path d="M18.3928 4.30069C17.3361 3.42219 16.1087 2.77186 14.788 2.39069C13.4673 2.00952 12.0818 1.90578 10.719 2.08598C8.19775 2.41321 5.89569 3.68675 4.28021 5.64802C2.66473 7.60929 1.85693 10.1113 2.02083 12.6459C2.18474 15.1806 3.30806 17.5579 5.16271 19.2952C7.01735 21.0325 9.4643 21.9996 12.0067 22H17.8299C18.9354 21.9987 19.9954 21.5593 20.7771 20.7783C21.5589 19.9973 21.9987 18.9384 22 17.8339V11.4256V11.3731C21.9117 10.0111 21.5463 8.68148 20.9261 7.46545C20.3059 6.24941 19.4439 5.17254 18.3928 4.30069ZM8.65558 7.83522H11.9917C12.2129 7.83522 12.425 7.923 12.5814 8.07926C12.7378 8.23552 12.8257 8.44746 12.8257 8.66844C12.8257 8.88943 12.7378 9.10136 12.5814 9.25762C12.425 9.41388 12.2129 9.50166 11.9917 9.50166H8.65558C8.43438 9.50166 8.22224 9.41388 8.06583 9.25762C7.90942 9.10136 7.82155 8.88943 7.82155 8.66844C7.82155 8.44746 7.90942 8.23552 8.06583 8.07926C8.22224 7.923 8.43438 7.83522 8.65558 7.83522ZM15.3278 16.1674H8.65558C8.43438 16.1674 8.22224 16.0797 8.06583 15.9234C7.90942 15.7671 7.82155 15.5552 7.82155 15.3342C7.82155 15.1132 7.90942 14.9013 8.06583 14.745C8.22224 14.5888 8.43438 14.501 8.65558 14.501H15.3278C15.549 14.501 15.7611 14.5888 15.9175 14.745C16.0739 14.9013 16.1618 15.1132 16.1618 15.3342C16.1618 15.5552 16.0739 15.7671 15.9175 15.9234C15.7611 16.0797 15.549 16.1674 15.3278 16.1674ZM15.3278 12.8346H8.65558C8.43438 12.8346 8.22224 12.7468 8.06583 12.5905C7.90942 12.4342 7.82155 12.2223 7.82155 12.0013C7.82155 11.7803 7.90942 11.5684 8.06583 11.4122C8.22224 11.2559 8.43438 11.1681 8.65558 11.1681H15.3278C15.549 11.1681 15.7611 11.2559 15.9175 11.4122C16.0739 11.5684 16.1618 11.7803 16.1618 12.0013C16.1618 12.2223 16.0739 12.4342 15.9175 12.5905C15.7611 12.7468 15.549 12.8346 15.3278 12.8346Z" fill="#38C05D"/>
</g>
<defs>
<clipPath id="clip0_47067_10574">
<rect width="20" height="20" fill="white" transform="translate(2 2)"/>
</clipPath>
</defs>
</svg>
