<svg width="24" height="24" viewBox="0 0 24 24" fill="none" xmlns="http://www.w3.org/2000/svg">
<g clip-path="url(#clip0_47067_10925)">
<path d="M18.6631 10.3333V13.6667C18.6612 14.3101 18.5094 14.9443 18.2199 15.5191C17.9303 16.0939 17.5108 16.5935 16.9946 16.9783V14.5C16.9926 12.9535 16.3767 11.4709 15.282 10.3774C14.1873 9.28387 12.7031 8.66865 11.1549 8.66667H6.1495C5.98265 8.66667 5.8158 8.6775 5.65563 8.69167C5.97757 7.9431 6.5119 7.30508 7.19267 6.85637C7.87343 6.40765 8.67083 6.16789 9.48644 6.16667H14.4919C15.5977 6.16799 16.6579 6.6074 17.4399 7.38852C18.2218 8.16963 18.6617 9.22867 18.6631 10.3333ZM11.6505 17.4808C11.4955 17.6358 11.3115 17.7587 11.1089 17.8426C10.9064 17.9265 10.6893 17.9696 10.47 17.9696C10.2507 17.9696 10.0336 17.9265 9.83108 17.8426C9.62853 17.7587 9.44452 17.6358 9.28956 17.4808L8.89247 17.0808L3.96296 21.3542C4.62303 21.7738 5.38876 21.9978 6.17119 22H11.1766C12.2825 21.9987 13.3427 21.5593 14.1246 20.7782C14.9066 19.997 15.3465 18.938 15.3478 17.8333V14.5C15.3433 14.2763 15.3207 14.0534 15.2802 13.8333L11.6505 17.4808ZM14.6128 12.1475L10.4733 16.3092L10.0771 15.91C9.7819 15.6125 9.38511 15.4374 8.96618 15.4198C8.54725 15.4022 8.13713 15.5434 7.81797 15.815L2.74748 20.2025C2.26113 19.508 2.00019 18.6809 2 17.8333V14.5C2.00132 13.3953 2.44121 12.3363 3.22317 11.5552C4.00514 10.7741 5.06532 10.3347 6.17119 10.3333H11.1766C11.8536 10.3342 12.5202 10.4997 13.1189 10.8155C13.7176 11.1312 14.2303 11.5878 14.6128 12.1458V12.1475ZM6.1495 13.75C6.1495 13.5852 6.10057 13.4241 6.0089 13.287C5.91723 13.15 5.78694 13.0432 5.63451 12.9801C5.48207 12.917 5.31433 12.9005 5.15251 12.9327C4.99068 12.9648 4.84203 13.0442 4.72536 13.1607C4.60869 13.2773 4.52924 13.4258 4.49705 13.5874C4.46486 13.7491 4.48138 13.9166 4.54452 14.0689C4.60766 14.2212 4.71459 14.3513 4.85178 14.4429C4.98897 14.5345 5.15026 14.5833 5.31526 14.5833C5.53651 14.5833 5.7487 14.4955 5.90515 14.3393C6.0616 14.183 6.1495 13.971 6.1495 13.75ZM17.8288 2H12.8234C12.0094 2.00198 11.2139 2.2421 10.535 2.69068C9.85614 3.13927 9.32369 3.77667 9.00342 4.52417C9.16276 4.51167 9.32377 4.5 9.48644 4.5H14.4919C16.04 4.50198 17.5242 5.1172 18.6189 6.21074C19.7137 7.30427 20.3295 8.78685 20.3315 10.3333V12.8117C20.8477 12.4268 21.2672 11.9272 21.5568 11.3524C21.8464 10.7777 21.9981 10.1435 22 9.5V6.16667C21.9987 5.062 21.5588 4.00296 20.7768 3.22185C19.9949 2.44073 18.9347 2.00132 17.8288 2V2Z" fill="#38C05D"/>
</g>
<defs>
<clipPath id="clip0_47067_10925">
<rect width="20" height="20" fill="white" transform="translate(2 2)"/>
</clipPath>
</defs>
</svg>
