<svg width="24" height="24" viewBox="0 0 24 24" fill="none" xmlns="http://www.w3.org/2000/svg">
<g clip-path="url(#clip0_47067_10990)">
<path d="M15.3353 4.292C15.3353 6.09476 12.9849 8.33509 11.8139 9.27439C11.6307 9.42129 11.4029 9.50135 11.168 9.50135C10.9331 9.50135 10.7053 9.42129 10.5221 9.27439C9.35107 8.33425 7.00073 6.09476 7.00073 4.292C6.97444 3.7121 7.17891 3.14539 7.56939 2.71586C7.95987 2.28633 8.50459 2.02894 9.08436 2C9.66414 2.02894 10.2089 2.28633 10.5993 2.71586C10.9898 3.14539 11.1943 3.7121 11.168 4.292C11.1417 3.7121 11.3462 3.14539 11.7367 2.71586C12.1271 2.28633 12.6719 2.02894 13.2516 2C13.8314 2.02894 14.3761 2.28633 14.7666 2.71586C15.1571 3.14539 15.3616 3.7121 15.3353 4.292ZM21.4512 12.2932L15.0336 19.3017C14.2522 20.1537 13.3022 20.8338 12.2439 21.2988C11.1855 21.7638 10.042 22.0036 8.886 22.0029H5.33382C4.44963 22.0029 3.60166 21.6517 2.97645 21.0265C2.35124 20.4012 2 19.5533 2 18.6691V14.5018C2 13.6176 2.35124 12.7697 2.97645 12.1445C3.60166 11.5192 4.44963 11.168 5.33382 11.168H11.8239C12.0994 11.1685 12.3713 11.2306 12.6197 11.3498C12.8682 11.4689 13.0868 11.6421 13.2597 11.8566C13.4326 12.0711 13.5553 12.3215 13.619 12.5896C13.6826 12.8576 13.6855 13.1365 13.6275 13.4058C13.5373 13.7826 13.3341 14.1227 13.0451 14.3807C12.7561 14.6387 12.3951 14.8023 12.0106 14.8494L8.54095 15.3353C8.32227 15.3666 8.12499 15.4835 7.99246 15.6603C7.85993 15.8371 7.803 16.0592 7.83418 16.2779C7.86535 16.4967 7.98217 16.6942 8.15895 16.8269C8.33573 16.9596 8.55798 17.0167 8.77682 16.9855L12.3207 16.4854C13.1553 16.3625 13.9184 15.9446 14.4714 15.3075C15.0245 14.6703 15.3309 13.8561 15.3353 13.0124C15.3312 12.834 15.3131 12.6562 15.2811 12.4807L18.2332 9.36607C18.6225 8.94455 19.1628 8.69419 19.736 8.66967C20.3093 8.64515 20.8689 8.84847 21.2928 9.23522C21.7145 9.62171 21.9674 10.1584 21.9971 10.7297C22.0267 11.301 21.8306 11.861 21.4512 12.289V12.2932Z" fill="#38C05D"/>
</g>
<defs>
<clipPath id="clip0_47067_10990">
<rect width="20" height="20.0029" fill="white" transform="translate(2 2)"/>
</clipPath>
</defs>
</svg>
