<svg width="24" height="24" viewBox="0 0 24 24" fill="none" xmlns="http://www.w3.org/2000/svg">
<g clip-path="url(#clip0_47067_11250)">
<path fill-rule="evenodd" clip-rule="evenodd" d="M12.5 5.33336C13.3284 5.33336 14 4.58716 14 3.66668C14 2.7462 13.3284 2 12.5 2C11.6716 2 11 2.7462 11 3.66668C11 4.58716 11.6716 5.33336 12.5 5.33336ZM12.5 13.6666C13.3284 13.6666 14 12.9204 14 11.9999C14 11.0795 13.3284 10.3333 12.5 10.3333C11.6716 10.3333 11 11.0795 11 11.9999C11 12.9204 11.6716 13.6666 12.5 13.6666ZM14 20.3332C14 21.2537 13.3284 21.9999 12.5 21.9999C11.6716 21.9999 11 21.2537 11 20.3332C11 19.4127 11.6716 18.6665 12.5 18.6665C13.3284 18.6665 14 19.4127 14 20.3332Z" fill="#374957"/>
</g>
<defs>
<clipPath id="clip0_47067_11250">
<rect width="3" height="20" fill="white" transform="translate(11 2)"/>
</clipPath>
</defs>
</svg>
