<svg width="24" height="24" viewBox="0 0 24 24" fill="none" xmlns="http://www.w3.org/2000/svg">
<g clip-path="url(#clip0_47067_10982)">
<path d="M21.1143 7.67577L19.2964 5.85379L20.0854 5.06341C20.165 4.98642 20.2284 4.89432 20.2721 4.7925C20.3158 4.69067 20.3388 4.58115 20.3397 4.47033C20.3407 4.35951 20.3196 4.24961 20.2777 4.14704C20.2358 4.04446 20.1739 3.95128 20.0957 3.87291C20.0175 3.79455 19.9245 3.73258 19.8221 3.69061C19.7197 3.64864 19.61 3.62753 19.4994 3.62849C19.3887 3.62945 19.2794 3.65248 19.1777 3.69622C19.0761 3.73996 18.9842 3.80354 18.9073 3.88326L18.1183 4.67364L16.2995 2.8525C15.7263 2.30526 14.9648 2 14.1729 2C13.381 2 12.6195 2.30526 12.0463 2.8525C11.7668 3.13224 11.5451 3.46441 11.3938 3.83002C11.2426 4.19563 11.1647 4.58752 11.1647 4.98329C11.1647 5.37905 11.2426 5.77094 11.3938 6.13656C11.5451 6.50217 11.7668 6.83433 12.0463 7.11407L13.8642 8.93521L8.9536 13.8545L7.13482 12.0333C6.56156 11.4861 5.80006 11.1808 5.00819 11.1808C4.21633 11.1808 3.45483 11.4861 2.88156 12.0333C2.60209 12.313 2.38038 12.6452 2.22912 13.0108C2.07786 13.3764 2 13.7683 2 14.1641C2 14.5599 2.07786 14.9518 2.22912 15.3174C2.38038 15.683 2.60209 16.0151 2.88156 16.2949L4.69951 18.116L3.91051 18.9064C3.83094 18.9834 3.76747 19.0755 3.7238 19.1773C3.68014 19.2791 3.65715 19.3887 3.65619 19.4995C3.65523 19.6103 3.67631 19.7202 3.7182 19.8228C3.76009 19.9253 3.82196 20.0185 3.90019 20.0969C3.97841 20.1753 4.07144 20.2372 4.17383 20.2792C4.27622 20.3212 4.38593 20.3423 4.49655 20.3413C4.60718 20.3404 4.71651 20.3173 4.81816 20.2736C4.9198 20.2298 5.01174 20.1663 5.08859 20.0865L5.87759 19.2962L7.69637 21.1173C7.9756 21.3971 8.30713 21.6191 8.67203 21.7706C9.03692 21.922 9.42802 22 9.823 22C10.218 22 10.6091 21.922 10.974 21.7706C11.3389 21.6191 11.6704 21.3971 11.9496 21.1173C12.2291 20.8376 12.4508 20.5055 12.602 20.14C12.7533 19.7745 12.8311 19.3826 12.8311 18.9869C12.8311 18.5912 12.7533 18.1994 12.602 17.8339C12.4508 17.4683 12.2291 17.1362 11.9496 16.8566L10.1317 15.0354L15.0473 10.1154L16.8652 11.9365C17.1445 12.2163 17.476 12.4383 17.8409 12.5898C18.2058 12.7412 18.5969 12.8192 18.9919 12.8192C19.3869 12.8192 19.778 12.7412 20.1429 12.5898C20.5077 12.4383 20.8393 12.2163 21.1185 11.9365C21.398 11.6568 21.6196 11.3247 21.7709 10.9592C21.9221 10.5937 22 10.2018 22 9.80613C22 9.41043 21.9221 9.01861 21.7709 8.65307C21.6196 8.28753 21.398 7.95543 21.1185 7.67577H21.1143Z" fill="#7D7E81"/>
</g>
<defs>
<clipPath id="clip0_47067_10982">
<rect width="20" height="20" fill="white" transform="translate(2 2)"/>
</clipPath>
</defs>
</svg>
